<?xml version="1.0" encoding="iso-8859-1"?>
<!-- Generator: Adobe Illustrator 19.0.0, SVG Export Plug-In . SVG Version: 6.00 Build 0)  -->
<svg version="1.1" id="Layer_1" xmlns="http://www.w3.org/2000/svg" xmlns:xlink="http://www.w3.org/1999/xlink" x="0px" y="0px"
	 viewBox="0 0 497.6 497.6" style="enable-background:new 0 0 497.6 497.6;" xml:space="preserve">
<path style="fill:#58797A;" d="M268,449.6c0,10.4-8.8,19.2-19.2,19.2l0,0c-10.4,0-19.2-8.8-19.2-19.2l-32-158.4
	c0-10.4,40.8-19.2,51.2-19.2l0,0c10.4,0,51.2,8.8,51.2,19.2L268,449.6z"/>
<path style="fill:#A3BCC1;" d="M480.8,260.8c0,15.2-12,28-27.2,28H44c-15.2,0-27.2-12.8-27.2-28l0,0c0-15.2,12-28,27.2-28h409.6
	C468.8,232.8,480.8,245.6,480.8,260.8L480.8,260.8z"/>
<g>
	<path style="fill:#7C999B;" d="M480.8,260L480.8,260c0,15.2-12,28.8-27.2,28.8H44c-15.2,0-27.2-12.8-27.2-28l0,0"/>
	<path style="fill:#7C999B;" d="M268,449.6c0,10.4-8.8,19.2-19.2,19.2l0,0c-10.4,0-19.2-8.8-19.2-19.2l-16-158.4
		c0-10.4,24.8-19.2,35.2-19.2l0,0c10.4,0,35.2,8.8,35.2,19.2L268,449.6z"/>
</g>
<path style="fill:#4F3710;" d="M388,278.4c0,48-62.4,59.2-139.2,59.2s-139.2-11.2-139.2-59.2s62.4-87.2,139.2-87.2
	S388,230.4,388,278.4z"/>
<path style="fill:#58797A;" d="M248.8,348c7.2,0,20,4,28,9.6l6.4-66.4c0-10.4-24.8-19.2-35.2-19.2c-10.4,0-35.2,8.8-35.2,19.2
	l6.4,66.4C228.8,352,241.6,348,248.8,348z"/>
<path style="fill:#7C6535;" d="M248.8,0C111.2,0,0,111.2,0,248.8s111.2,248.8,248.8,248.8s248.8-111.2,248.8-248.8S386.4,0,248.8,0z
	 M248.8,441.6C142.4,441.6,56,355.2,56,248.8S142.4,56,248.8,56s192.8,86.4,192.8,192.8S355.2,441.6,248.8,441.6z"/>
<path style="fill:#937745;" d="M248.8,0C111.2,0,0,111.2,0,248.8s111.2,248.8,248.8,248.8s248.8-111.2,248.8-248.8S386.4,0,248.8,0z
	 M248.8,441.6C142.4,441.6,56,355.2,56,248.8S142.4,56,248.8,56s192.8,86.4,192.8,192.8S355.2,441.6,248.8,441.6z"/>
<path style="fill:#4F3710;" d="M248.8,17.6C114.4,17.6,4.8,124,0,257.6c4.8,133.6,114.4,240,248.8,240s244-106.4,248.8-240
	C492.8,124.8,383.2,17.6,248.8,17.6z M441.6,266.4c0,106.4-86.4,192.8-192.8,192.8S56,373.6,56,266.4c0-3.2,0-6.4,0-8.8
	c0-3.2,0-5.6,0-8.8C56,142.4,142.4,56,248.8,56s192.8,86.4,192.8,192.8c0,3.2,0,6.4,0,8.8C441.6,260.8,441.6,264,441.6,266.4z"/>
<path style="fill:#BC9857;" d="M388,262.4c0,48-62.4,59.2-139.2,59.2s-139.2-11.2-139.2-59.2s62.4-87.2,139.2-87.2
	S388,213.6,388,262.4z"/>
<path style="fill:#937745;" d="M388,262.4c0,48-62.4,59.2-139.2,59.2s-139.2-11.2-139.2-59.2s62.4-72.8,139.2-72.8
	S388,213.6,388,262.4z"/>
<path style="fill:#7C6535;" d="M388,262.4c0,48-62.4,59.2-139.2,59.2s-139.2-11.2-139.2-59.2s62.4-56.8,139.2-56.8
	S388,213.6,388,262.4z"/>
<path style="fill:#685026;" d="M388,262.4c0,48-62.4,59.2-139.2,59.2s-139.2-11.2-139.2-59.2"/>
<path style="fill:#4F3710;" d="M298.4,320.8c0,4-4.8,8-10.4,8h-79.2c-5.6,0-10.4-4-10.4-8l0,0c0-4,4.8-8,10.4-8h80
	C294.4,312.8,298.4,316.8,298.4,320.8L298.4,320.8z"/>
<g>
	<circle style="fill:#A3BCC1;" cx="248.8" cy="341.6" r="4"/>
	<circle style="fill:#A3BCC1;" cx="248.8" cy="364" r="4"/>
	<circle style="fill:#A3BCC1;" cx="248.8" cy="386.4" r="4"/>
	<circle style="fill:#A3BCC1;" cx="248.8" cy="408" r="4"/>
</g>
<g>
	<circle style="fill:#BC9857;" cx="167.2" cy="279.2" r="3.2"/>
	<circle style="fill:#BC9857;" cx="188" cy="279.2" r="3.2"/>
	<circle style="fill:#BC9857;" cx="208" cy="279.2" r="3.2"/>
	<circle style="fill:#BC9857;" cx="228.8" cy="279.2" r="3.2"/>
	<circle style="fill:#BC9857;" cx="248.8" cy="279.2" r="3.2"/>
	<circle style="fill:#BC9857;" cx="268.8" cy="279.2" r="3.2"/>
	<circle style="fill:#BC9857;" cx="289.6" cy="279.2" r="3.2"/>
	<circle style="fill:#BC9857;" cx="309.6" cy="279.2" r="3.2"/>
	<circle style="fill:#BC9857;" cx="330.4" cy="279.2" r="3.2"/>
	<circle style="fill:#BC9857;" cx="167.2" cy="297.6" r="3.2"/>
	<circle style="fill:#BC9857;" cx="188" cy="297.6" r="3.2"/>
	<circle style="fill:#BC9857;" cx="208" cy="297.6" r="3.2"/>
	<circle style="fill:#BC9857;" cx="228.8" cy="297.6" r="3.2"/>
	<circle style="fill:#BC9857;" cx="248.8" cy="297.6" r="3.2"/>
	<circle style="fill:#BC9857;" cx="268.8" cy="297.6" r="3.2"/>
	<circle style="fill:#BC9857;" cx="289.6" cy="297.6" r="3.2"/>
	<circle style="fill:#BC9857;" cx="309.6" cy="297.6" r="3.2"/>
	<circle style="fill:#BC9857;" cx="330.4" cy="297.6" r="3.2"/>
	<polygon style="fill:#BC9857;" points="248.8,222.4 268,241.6 278.4,231.2 248.8,201.6 219.2,231.2 229.6,241.6 	"/>
	<polygon style="fill:#BC9857;" points="248.8,222.4 268,241.6 278.4,231.2 248.8,201.6 219.2,231.2 229.6,241.6 	"/>
</g>
<polygon style="fill:#685026;" points="248.8,268.8 268,241.6 278.4,231.2 248.8,201.6 219.2,231.2 229.6,241.6 "/>
<polygon style="fill:#BC9857;" points="248.8,222.4 268,241.6 278.4,231.2 248.8,201.6 219.2,231.2 229.6,241.6 "/>
<polygon style="fill:#937745;" points="223.2,235.2 229.6,241.6 248.8,222.4 268,241.6 274.4,235.2 248.8,210.4 "/>
<g>
	<polygon style="fill:#BFD8DB;" points="66.4,240.8 110.4,240.8 94.4,257.6 	"/>
	<polygon style="fill:#BFD8DB;" points="431.2,240.8 387.2,240.8 403.2,257.6 	"/>
</g>
<g>
</g>
<g>
</g>
<g>
</g>
<g>
</g>
<g>
</g>
<g>
</g>
<g>
</g>
<g>
</g>
<g>
</g>
<g>
</g>
<g>
</g>
<g>
</g>
<g>
</g>
<g>
</g>
<g>
</g>
</svg>
